<svg xmlns="http://www.w3.org/2000/svg" viewBox="0 0 450 135"><path fill="#009FE3" d="M262.02 27.84l-20.21 8.08V19.76m-33.68 16.16l-20.21-8.08 37.05-14.82v16.17"/><path fill="#C6C6C6" d="M208.13 54.79l-23.58-9.43V29.19l23.58 9.43m57.26 6.74V29.19l-40.42 16.17v16.16"/><path fill="#575756" d="M97.76 86.96v14.7h-2.44V95.4h-6.58v6.27h-2.45v-14.7h2.45v6.46h6.58v-6.46h2.44zm15.22 6.03v2.64c0 3.62-2.43 6.24-6.08 6.24-3.58 0-5.95-2.63-5.95-6.24v-2.64c0-3.59 2.35-6.24 5.94-6.24 3.65 0 6.09 2.65 6.09 6.24zm-2.45 2.65v-2.66c0-2.43-1.37-4.2-3.63-4.2-2.19 0-3.49 1.74-3.49 4.2v2.66c0 2.47 1.31 4.23 3.5 4.23 2.27 0 3.62-1.76 3.62-4.23zm14.09 1.26h2.45c-.29 3.1-2.23 4.98-5.63 4.98-3.48 0-5.7-2.48-5.7-6.16v-2.8c0-3.65 2.26-6.17 5.7-6.17 3.47 0 5.32 1.81 5.64 5.04h-2.46c-.25-2.05-1.12-3.07-3.19-3.07-2.05 0-3.26 1.73-3.26 4.18v2.82c0 2.49 1.19 4.2 3.26 4.2 2.04 0 2.94-.99 3.19-3.02zm17.11-9.94v14.7h-2.44V95.4h-6.58v6.27h-2.45v-14.7h2.45v6.46h6.58v-6.46h2.44zm11.94 10.93c0-1.25-.74-1.95-3.08-2.56-3.36-.89-5.13-2.16-5.13-4.5 0-2.41 2.11-4.08 5.26-4.08 3.28 0 5.39 1.95 5.39 4.49h-2.45c0-1.54-1.03-2.54-2.96-2.54-1.82 0-2.79.85-2.79 2.1 0 .58.25 1.04.77 1.39.5.36 1.37.72 2.61 1.05 3.22.88 4.83 2.24 4.83 4.61 0 2.49-2.09 4.01-5.33 4.01-3.14 0-5.78-1.67-5.78-4.61h2.45c0 1.82 1.31 2.67 3.33 2.67 1.85.01 2.88-.75 2.88-2.03zm13.9-.99h2.45c-.29 3.1-2.23 4.98-5.63 4.98-3.48 0-5.7-2.48-5.7-6.16v-2.8c0-3.65 2.26-6.17 5.7-6.17 3.47 0 5.32 1.81 5.64 5.04h-2.45c-.25-2.05-1.12-3.07-3.19-3.07-2.05 0-3.26 1.73-3.26 4.18v2.82c0 2.49 1.19 4.2 3.26 4.2 2.03 0 2.92-.99 3.18-3.02zm17.1-9.94v14.7h-2.44V95.4h-6.58v6.27h-2.45v-14.7h2.45v6.46h6.58v-6.46h2.44zm12.76 0h2.45v9.85c0 3.32-2.26 5.06-5.76 5.06-3.43 0-5.65-1.74-5.65-5.06v-9.85h2.45v9.85c0 2.1 1.21 3.1 3.2 3.1 2.06 0 3.31-1 3.31-3.1v-9.85zm8.66 0V99.7h7.03v1.96h-9.48v-14.7h2.45zm18.88 6.13v1.96h-6.43v4.66H226v1.96h-9.92v-14.7h9.84v1.97h-7.39v4.15h6.44zm23.41-.1v2.64c0 3.62-2.43 6.24-6.08 6.24-3.58 0-5.95-2.63-5.95-6.24v-2.64c0-3.59 2.35-6.24 5.94-6.24 3.65 0 6.09 2.65 6.09 6.24zm-2.45 2.65v-2.66c0-2.43-1.37-4.2-3.63-4.2-2.19 0-3.5 1.74-3.5 4.2v2.66c0 2.47 1.31 4.23 3.51 4.23 2.26 0 3.62-1.76 3.62-4.23zm13.67 2.25c0-1.25-.74-1.95-3.08-2.56-3.36-.89-5.13-2.16-5.13-4.5 0-2.41 2.11-4.08 5.26-4.08 3.28 0 5.39 1.95 5.39 4.49h-2.46c0-1.54-1.03-2.54-2.96-2.54-1.82 0-2.79.85-2.79 2.1 0 .58.25 1.04.77 1.39.5.36 1.37.72 2.61 1.05 3.22.88 4.83 2.24 4.83 4.61 0 2.49-2.09 4.01-5.33 4.01-3.14 0-5.78-1.67-5.78-4.61h2.46c0 1.82 1.31 2.67 3.33 2.67 1.85.01 2.88-.75 2.88-2.03zm17.21-10.93v14.7h-2.44l-6.55-10.77-.03.01v10.76h-2.45v-14.7h2.45l6.55 10.76.03-.01V86.96h2.44zm13.04 14.7l-1.2-3.51h-5.66l-1.21 3.51h-2.49l5.4-14.7h2.33l5.33 14.7h-2.5zm-4.04-11.73l-2.15 6.25h4.32l-2.14-6.25h-.03zm14.59 11.73h-5.58v-14.7h4.93c3.3 0 5.15 1.29 5.15 4.01 0 1.34-.79 2.42-2.12 2.94v.03c1.73.37 2.67 1.76 2.67 3.51 0 2.81-1.81 4.21-5.05 4.21zm-3.13-12.73v4.22h2.74c1.54 0 2.43-.7 2.43-2.07 0-1.49-.88-2.15-2.69-2.15h-2.48zm3.37 6.05h-3.37v4.72h3.13c1.7 0 2.61-.81 2.61-2.26-.01-1.58-.72-2.46-2.37-2.46zm18.7-3.72c0 1.81-.88 3.11-2.48 3.83l3.33 6.38v.19h-2.7l-2.94-5.92h-3.21v5.92h-2.45v-14.7h5.3c3.34 0 5.15 1.51 5.15 4.3zm-8-2.33v4.83h2.86c1.81 0 2.69-.85 2.69-2.42 0-1.51-.85-2.41-2.7-2.41h-2.85zm20.43-1.97h2.45v9.85c0 3.32-2.26 5.06-5.76 5.06-3.43 0-5.65-1.74-5.65-5.06v-9.85h2.45v9.85c0 2.1 1.21 3.1 3.2 3.1 2.06 0 3.31-1 3.31-3.1v-9.85zm-4.27-3.62v2.16h-2.43v-2.16h2.43zm4.49 0v2.16h-2.45v-2.16h2.45zm14.44 13.56h2.45c-.29 3.1-2.23 4.98-5.63 4.98-3.48 0-5.7-2.48-5.7-6.16v-2.8c0-3.65 2.26-6.17 5.7-6.17 3.47 0 5.32 1.81 5.64 5.04h-2.45c-.26-2.05-1.12-3.07-3.19-3.07-2.05 0-3.26 1.73-3.26 4.18v2.82c0 2.49 1.19 4.2 3.26 4.2 2.03 0 2.93-.99 3.18-3.02zm14.31 4.76l-4.72-6.46-1.5 1.67v4.79h-2.45v-14.7h2.45v6.8l5.79-6.8h2.91l-5.51 6.37 6.16 8.32h-3.13zm-238.51 11.47h.71v5.85c0 1.92-1.22 2.91-3.11 2.91-1.86 0-3.07-.99-3.07-2.91v-5.85h.71v5.85c0 1.5.93 2.31 2.35 2.31 1.45 0 2.41-.81 2.41-2.31v-5.85zm9.79 0v8.64h-.71l-4.92-7.46-.02.01v7.45h-.71v-8.64h.71l4.92 7.45.02-.01v-7.44h.71zm4.1 0v8.64h-.71v-8.64h.71zm3.25 0l2.59 7.18.18.61h.02l.18-.61 2.6-7.18h.76l-3.21 8.64h-.68l-3.21-8.64h.77zm13.16 3.85v.6h-4.16v3.58h4.76v.6h-5.47v-8.64h5.44v.6h-4.73v3.25h4.16zm9.08-1.41c0 1.07-.66 1.91-1.68 2.21l2.13 3.89v.1h-.78l-2.04-3.83h-2.66v3.83h-.71v-8.63h2.94c1.76 0 2.8.86 2.8 2.43zm-5.04-1.83v3.6h2.39c1.26 0 1.93-.72 1.93-1.77 0-1.14-.74-1.82-2.09-1.82h-2.23zm12.86 5.91c0-.97-.59-1.48-2.37-1.94-1.93-.48-2.88-1.15-2.88-2.46 0-1.34 1.18-2.23 2.91-2.23 1.81 0 2.98 1.1 2.98 2.58h-.71c0-1.18-.85-1.98-2.28-1.98-1.41 0-2.21.68-2.21 1.61 0 .88.6 1.41 2.4 1.86 1.89.48 2.85 1.21 2.85 2.56 0 1.41-1.22 2.25-3 2.25-1.76 0-3.23-.86-3.23-2.58h.71c0 1.37 1.13 1.98 2.53 1.98 1.4-.01 2.3-.65 2.3-1.65zm4.44-6.52v8.64h-.71v-8.64h.71zm9 0v.6h-2.93v8.03h-.71v-8.03h-2.93v-.6h6.57zm2.07 0l2.66 4.8 2.67-4.8h.82l-3.15 5.48v3.15h-.71v-3.2l-3.13-5.44h.84zm18.01 3.62v1.4c0 2.22-1.32 3.74-3.38 3.74-2.02 0-3.33-1.51-3.33-3.74v-1.4c0-2.22 1.3-3.74 3.32-3.74 2.06 0 3.39 1.53 3.39 3.74zm-.71 1.41v-1.42c0-1.85-1-3.11-2.68-3.11-1.64 0-2.61 1.26-2.61 3.11v1.42c0 1.87.98 3.12 2.62 3.12 1.68-.01 2.67-1.25 2.67-3.12zm8.14-1.04v.61h-4.2v4.05h-.71v-8.64h5.51v.6h-4.8v3.38h4.2zm11.82 4.65l-.9-2.44h-3.94l-.9 2.44h-.73l3.28-8.64h.67l3.26 8.64h-.74zm-2.85-7.77l-1.76 4.72h3.49l-1.73-4.72zm8.52 4.18h-2.27v3.59h-.71v-8.64h2.97c1.85 0 2.85.98 2.85 2.52.01 1.57-.99 2.53-2.84 2.53zm-2.27-4.44v3.84h2.27c1.45 0 2.14-.79 2.14-1.91 0-1.14-.69-1.93-2.14-1.93h-2.27zm10.15 4.44h-2.27v3.59h-.71v-8.64h2.97c1.85 0 2.85.98 2.85 2.52.01 1.57-.99 2.53-2.84 2.53zm-2.27-4.44v3.84h2.27c1.45 0 2.14-.79 2.14-1.91 0-1.14-.69-1.93-2.14-1.93h-2.27zm8.13-.61v8.04h4.27v.6h-4.98v-8.64h.71zm7.59 0v8.64h-.71v-8.64h.71zm8.25 3.85v.6h-4.16v3.58h4.76v.6h-5.47v-8.64h5.44v.6h-4.73v3.25h4.16zm5.81 4.79h-2.46v-8.64h2.51c2.19 0 3.65 1.51 3.65 3.76V118c0 2.29-1.45 3.77-3.7 3.77zm.05-8.03h-1.8v7.43h1.75c1.86 0 2.99-1.26 2.99-3.16v-1.13c0-1.9-1.13-3.14-2.94-3.14zm15.29 5.91c0-.97-.59-1.48-2.37-1.94-1.93-.48-2.88-1.15-2.88-2.46 0-1.34 1.18-2.23 2.91-2.23 1.81 0 2.98 1.1 2.98 2.58h-.71c0-1.18-.85-1.98-2.28-1.98-1.41 0-2.21.68-2.21 1.61 0 .88.61 1.41 2.4 1.86 1.89.48 2.85 1.21 2.85 2.56 0 1.41-1.22 2.25-3 2.25-1.76 0-3.23-.86-3.23-2.58h.71c0 1.37 1.13 1.98 2.53 1.98 1.4-.01 2.3-.65 2.3-1.65zm8.29-.57h.7c-.19 1.8-1.28 2.81-3.13 2.81-1.96 0-3.21-1.48-3.21-3.74v-1.4c0-2.25 1.25-3.74 3.21-3.74 1.87 0 2.95.98 3.13 2.82h-.7c-.19-1.46-.95-2.21-2.43-2.21-1.54 0-2.5 1.26-2.5 3.13v1.42c0 1.89.96 3.14 2.5 3.14 1.49-.02 2.24-.71 2.43-2.23zm4.33-5.95v8.64h-.71v-8.64h.71zm8.26 3.85v.6h-4.16v3.58h4.76v.6h-5.47v-8.64h5.44v.6h-4.73v3.25h4.16zm9.47-3.85v8.64h-.71l-4.92-7.46-.02.01v7.45h-.71v-8.64h.71l4.93 7.45.02-.01v-7.44h.7zm8.19 5.95h.7c-.19 1.8-1.28 2.81-3.13 2.81-1.96 0-3.21-1.48-3.21-3.74v-1.4c0-2.25 1.25-3.74 3.21-3.74 1.87 0 2.95.98 3.13 2.82h-.7c-.19-1.46-.95-2.21-2.43-2.21-1.54 0-2.5 1.26-2.5 3.13v1.42c0 1.89.96 3.14 2.5 3.14 1.49-.02 2.24-.71 2.43-2.23zm7.97-2.1v.6h-4.16v3.58h4.76v.6h-5.47v-8.64h5.44v.6h-4.73v3.25h4.16zm7.69 2.67c0-.97-.59-1.48-2.37-1.94-1.93-.48-2.88-1.15-2.88-2.46 0-1.34 1.17-2.23 2.91-2.23 1.81 0 2.98 1.1 2.98 2.58h-.7c0-1.18-.85-1.98-2.28-1.98-1.4 0-2.2.68-2.2 1.61 0 .88.61 1.41 2.4 1.86 1.89.48 2.85 1.21 2.85 2.56 0 1.41-1.22 2.25-3 2.25-1.76 0-3.23-.86-3.23-2.58h.71c0 1.37 1.13 1.98 2.53 1.98 1.38-.01 2.28-.65 2.28-1.65z"/></svg>