<?xml version="1.0" encoding="UTF-8"?>
<svg width="256px" height="256px" viewBox="0 0 512 512" version="1.1" xmlns="http://www.w3.org/2000/svg" xmlns:xlink="http://www.w3.org/1999/xlink">
    <!-- Generator: Sketch 64 (93537) - https://sketch.com -->
    <title>background</title>
    <desc>Created with Sketch.</desc>
    <g id="background" stroke="none" stroke-width="1" fill="none" fill-rule="evenodd">
        <g>
            <rect id="Rectangle" fill="#FFEBEE" x="0" y="0" width="512" height="512"></rect>
            <path d="M473,180.915663 C473,140.289157 442.649533,106.795181 404.012906,103.180723 C400.592457,63.373494 367.977748,32 328.377615,32 C297.930797,32 271.675234,50.6024096 259.583222,77.253012 C247.153983,50.5542169 220.17579,32 188.861816,32 C148.153649,32 114.623609,63.3253012 111.106809,103.13253 C71.3139742,106.650602 40,140.192771 40,180.915663 C40,199.036145 46.2146195,216.289157 57.5840009,230.216867 C46.2146195,244.144578 40,261.39759 40,279.518072 C40,310.60241 58.2584557,338.26506 86.1519804,350.746988 C82.4424789,360 80.4672897,369.975904 80.4672897,379.951807 C80.4672897,412.385542 100.941811,441.783133 131.436805,453.108434 C141.31275,456.771084 151.718625,458.457831 161.883623,457.927711 C176.528927,472.192771 195.702715,480 216.177236,480 C231.834223,480 246.720405,475.373494 259.583222,466.698795 C272.108812,475.421687 286.609591,480 301.833,480 C321.777592,480 340.421451,472.192771 354.633178,457.927711 C364.460948,458.409639 374.57777,456.722892 384.164664,453.060241 C413.792501,441.73494 433.688919,412.337349 433.688919,379.951807 C433.688919,369.927711 431.81008,359.951807 428.148754,350.698795 C455.223298,338.216867 472.951825,310.554217 472.951825,279.518072 C472.951825,261.39759 466.929907,244.144578 455.849577,230.216867 C466.978082,216.289157 473,199.036145 473,180.915663 Z" id="Path" fill="#C94F7C" fill-rule="nonzero"></path>
        </g>
    </g>
</svg>