<?xml version="1.0" encoding="UTF-8"?>
<svg width="256px" height="256px" viewBox="0 0 512 512" version="1.1" xmlns="http://www.w3.org/2000/svg" xmlns:xlink="http://www.w3.org/1999/xlink">
    <!-- Generator: Sketch 64 (93537) - https://sketch.com -->
    <title>foreground</title>
    <desc>Created with Sketch.</desc>
    <g id="foreground" stroke="none" stroke-width="1" fill="none" fill-rule="evenodd">
        <g transform="translate(54.452603, 46.409639)" fill-rule="nonzero" id="Path">
            <path d="M115.476302,399.084337 C114.079217,397.638554 112.200378,396.819277 110.225189,396.819277 C110.032488,396.819277 109.791611,396.819277 109.59891,396.86747 C100.493769,397.686747 90.9550512,396.481928 81.9462617,393.156627 C57.0877837,383.951807 40.4191144,360 40.4191144,333.590361 C40.4191144,323.084337 42.9242323,313.108434 47.8381175,303.807229 C48.8497997,301.927711 48.9461504,299.710843 48.1753449,297.73494 C47.4045394,295.759036 45.7665777,294.216867 43.7432132,293.590361 C17.5840009,285.012048 0,260.722892 0,233.204819 C0,229.204819 0.385402759,225.301205 1.10803293,221.445783 L110.273364,221.445783 C113.549288,235.373494 126.074878,245.783133 140.961059,245.783133 C158.352359,245.783133 172.51591,231.614458 172.51591,214.216867 C172.51591,196.819277 158.352359,182.650602 140.961059,182.650602 C126.026702,182.650602 113.549288,193.060241 110.273364,206.987952 L5.73286604,206.987952 C8.71973743,200.385542 12.8146417,194.26506 17.9694036,188.915663 C20.667223,186.120482 20.667223,181.638554 17.9694036,178.843373 C6.35914553,166.891566 0,151.180723 0,134.60241 C0,99.5180723 28.5198042,70.9879518 63.5914553,70.9879518 C67.5900089,70.9879518 70.817757,67.7590361 70.817757,63.7590361 C70.817757,28.6746988 99.3375612,0.144578313 134.409212,0.144578313 C169.480863,0.144578313 198.000668,28.6746988 198.000668,63.7590361 L198.000668,146.891566 L161.33923,146.891566 L161.33923,130.409639 C161.33923,126.409639 158.111482,123.180723 154.112928,123.180723 L88.0163551,123.180723 C87.8236538,123.180723 87.6791277,123.228916 87.5346017,123.228916 C83.6805741,110.120482 71.5885625,100.481928 57.2323097,100.481928 C39.8410102,100.481928 25.6774588,114.650602 25.6774588,132.048193 C25.6774588,149.445783 39.8410102,163.614458 57.2323097,163.614458 C72.7447708,163.614458 85.6557632,152.385542 88.2572319,137.590361 L146.790276,137.590361 L146.790276,154.072289 C146.790276,158.072289 150.018024,161.301205 154.016578,161.301205 L197.904317,161.301205 L197.904317,273.542169 L126.556631,273.542169 C122.558077,273.542169 119.330329,276.771084 119.330329,280.771084 L119.330329,307.036145 C105.407655,310.313253 95.0017802,322.843373 95.0017802,337.73494 C95.0017802,355.13253 109.165332,369.301205 126.556631,369.301205 C143.947931,369.301205 158.111482,355.13253 158.111482,337.73494 C158.111482,322.795181 147.705607,310.313253 133.782933,307.036145 L133.782933,288 L198.000668,288 L198.000668,407.759036 C187.305741,415.228916 174.828327,419.180723 161.724633,419.180723 C144.092457,419.13253 127.664664,412 115.476302,399.084337 Z" fill="#FFEB3B"></path>
            <path d="M123.858812,214.120482 C123.858812,204.674699 131.518692,197.012048 140.961059,197.012048 C150.403427,197.012048 158.063307,204.674699 158.063307,214.120482 C158.063307,223.566265 150.403427,231.228916 140.961059,231.228916 C131.518692,231.228916 123.858812,223.566265 123.858812,214.120482 Z" fill="#FFEB3B"></path>
            <path d="M74.3827325,131.951807 C74.3827325,141.39759 66.7228527,149.060241 57.2804851,149.060241 C47.8381175,149.060241 40.1782377,141.39759 40.1782377,131.951807 C40.1782377,122.506024 47.8381175,114.843373 57.2804851,114.843373 C66.7228527,114.843373 74.3827325,122.506024 74.3827325,131.951807 Z" fill="#FFEB3B"></path>
            <path d="M126.556631,320.53012 C135.998999,320.53012 143.658879,328.192771 143.658879,337.638554 C143.658879,347.084337 135.998999,354.746988 126.556631,354.746988 C117.114263,354.746988 109.454384,347.084337 109.454384,337.638554 C109.454384,328.240964 117.114263,320.53012 126.556631,320.53012 Z" fill="#FFEB3B"></path>
            <path d="M404.094793,233.108434 C404.094793,258.409639 389.73854,280.86747 367.818758,291.036145 C356.449377,267.518072 338.142746,253.493976 313.284268,249.349398 C309.33389,248.674699 305.624388,251.373494 304.949933,255.277108 C304.275478,259.228916 306.973298,262.939759 310.875501,263.614458 C332.987984,267.325301 348.211393,280.192771 357.316533,303.036145 C357.364709,303.13253 357.412884,303.180723 357.461059,303.277108 C357.509235,303.421687 357.55741,303.566265 357.605585,303.662651 C362.374944,312.963855 364.831887,322.987952 364.831887,333.493976 C364.831887,359.951807 348.644971,383.903614 324.605474,393.108434 C316.126613,396.337349 307.214174,397.493976 298.590788,396.819277 C272.335225,389.060241 267.180463,377.542169 262.170227,366.457831 C260.532265,362.795181 256.24466,361.204819 252.631509,362.843373 C248.970182,364.481928 247.380396,368.771084 249.018358,372.385542 C255.088451,385.975904 262.170227,398.072289 283.511905,406.843373 C273.057855,414.795181 260.580441,419.084337 247.380396,419.084337 C234.758456,419.084337 222.714619,415.180723 212.405096,407.710843 L212.405096,63.6144578 C212.405096,28.5301205 239.961393,0 273.876836,0 C307.792279,0 335.348576,28.5301205 335.348576,63.6144578 C335.348576,93.8795181 326.050734,111.855422 306.925122,118.457831 C303.167445,119.759036 301.144081,123.855422 302.444815,127.662651 C303.456498,130.650602 306.298843,132.53012 309.285714,132.53012 C310.05652,132.53012 310.875501,132.385542 311.646306,132.144578 C335.155874,124 347.874166,103.566265 349.560303,71.3253012 C380.151647,74.939759 404.046618,101.879518 404.046618,134.506024 C404.046618,148.722892 399.46996,162.26506 391.135625,173.39759 C374.226079,159.13253 354.859591,153.686747 330.820093,156.481928 C326.869715,156.963855 324.02737,160.53012 324.460948,164.481928 C324.942701,168.433735 328.555852,171.277108 332.458055,170.843373 C354.811415,168.240964 371.52826,173.783133 386.607143,188.819277 C397.928349,200.771084 404.094793,216.481928 404.094793,233.108434 Z" fill="#FF80AB"></path>
            <path d="M297.312722,202.590361 C272.646851,202.590361 247.009883,224.981782 244.582139,248.627895 C244.1937,252.585 247.106992,256.156045 251.088491,256.542104 C251.331265,256.590361 251.57404,256.590361 251.816814,256.590361 C255.506984,256.590361 258.66305,253.791434 259.051489,250.075616 C260.702354,234.005911 280.367074,217.019316 297.264167,217.019316 C301.294221,217.019316 304.547397,213.786072 304.547397,209.78071 C304.547397,205.775348 301.294221,202.590361 297.312722,202.590361 Z" fill="#C94F7C"></path>
            <path d="M246.511346,314.432484 C243.745349,317.326289 243.939454,321.908147 246.85103,324.657261 C249.762606,327.358146 254.372601,327.213456 257.138598,324.319651 C264.466064,316.506378 284.992674,317.90505 292.32014,324.657261 C293.727401,325.959473 295.522873,326.586465 297.269818,326.586465 C299.210869,326.586465 301.15192,325.814783 302.607708,324.271421 C305.325178,321.329386 305.1796,316.747528 302.219497,314.046643 C289.554142,302.374964 259.71049,300.397531 246.511346,314.432484 Z" fill="#C94F7C"></path>
            <path d="M261.423523,152.590361 C263.241999,152.590361 265.060475,151.918356 266.485767,150.622345 C269.434647,147.886322 269.582091,143.326284 266.780655,140.44626 C259.457603,132.862197 261.276079,110.158008 270.810791,90.909847 C272.580119,87.309817 271.056531,83.0377814 267.370431,81.3097669 C263.684331,79.5817525 259.310159,81.0697649 257.540831,84.669795 C246.629974,106.749979 242.599838,136.366226 256.066391,150.334343 C257.491683,151.822355 259.457603,152.590361 261.423523,152.590361 Z" fill="#C94F7C"></path>
        </g>
    </g>
</svg>